<svg width="88" height="88" viewBox="0 0 88 88" fill="none" xmlns="http://www.w3.org/2000/svg">
<path d="M85.5286 33.0178C91.7465 56.2235 77.9752 80.0762 54.7694 86.2942C31.5636 92.5121 7.71099 78.7408 1.49302 55.535C-4.72494 32.3293 9.04639 8.47659 32.2522 2.25862C55.4579 -3.95935 79.3106 9.81198 85.5286 33.0178Z" fill="black"/>
<path d="M21.0059 48.647C19.6112 47.6458 18.1412 47.3523 16.5957 47.7664C15.9157 47.9486 15.3152 48.242 14.7941 48.6467C14.2886 49.0472 13.8851 49.5197 13.5838 50.0642C13.2783 50.5933 13.0806 51.1846 12.9907 51.8382C12.9163 52.4876 12.9701 53.1523 13.1523 53.8323C13.3387 54.5278 13.6265 55.1381 14.0156 55.6632C14.4203 56.1843 14.8892 56.6052 15.4225 56.9262C15.9711 57.243 16.5645 57.4484 17.2026 57.5424C17.8407 57.6365 18.492 57.5945 19.1566 57.4164C20.6093 57.0271 21.7496 56.059 22.5774 54.5121L24.0185 59.8903L23.5984 60.1768C22.9692 60.6105 22.3677 60.9621 21.7939 61.2318C21.2243 61.517 20.6459 61.7382 20.0586 61.8956C18.8531 62.2186 17.634 62.3051 16.4011 62.155C15.1796 61.9854 14.0341 61.6049 12.9646 61.0136C11.9064 60.4026 10.9712 59.6014 10.1589 58.6099C9.34242 57.6029 8.75405 56.4271 8.39378 55.0825C8.0335 53.7379 7.95156 52.443 8.14796 51.1978C8.35566 49.9329 8.76913 48.7868 9.38835 47.7596C10.0189 46.7127 10.8305 45.8161 11.8231 45.0697C12.8117 44.3079 13.9164 43.7635 15.1373 43.4363C15.8328 43.25 16.5335 43.145 17.2395 43.1215C17.9567 43.0784 18.7277 43.112 19.5524 43.2223L21.0059 48.647Z" fill="white"/>
<path d="M28.8699 49.6456C29.0563 50.3411 29.3595 50.9473 29.7796 51.4642C30.1997 51.981 30.6918 52.3958 31.256 52.7084C31.8201 53.0211 32.4289 53.2224 33.0825 53.3123C33.7473 53.3826 34.412 53.3287 35.0766 53.1507C35.7412 52.9726 36.336 52.689 36.8612 52.2998C37.3977 51.891 37.832 51.4102 38.1643 50.8574C38.512 50.3004 38.7385 49.6931 38.8439 49.0354C38.9492 48.3777 38.9087 47.7011 38.7224 47.0057C38.536 46.3102 38.2328 45.704 37.8127 45.1872C37.3926 44.6703 36.8928 44.2576 36.3132 43.9491C35.749 43.6364 35.1346 43.4449 34.4697 43.3746C33.8162 43.2847 33.1571 43.3288 32.4926 43.5069C31.828 43.6849 31.2275 43.9783 30.691 44.3871C30.1658 44.7763 29.7371 45.2473 29.4049 45.8001C29.0727 46.353 28.8538 46.9582 28.7485 47.6159C28.6431 48.2736 28.6836 48.9502 28.8699 49.6456ZM24.1176 50.919C23.7697 49.6208 23.6863 48.3511 23.8672 47.11C24.044 45.8535 24.4456 44.694 25.072 43.6317C25.6984 42.5694 26.5368 41.649 27.5871 40.8707C28.6487 40.0727 29.8905 39.4832 31.3123 39.1022C32.7187 38.7254 34.0811 38.6171 35.3995 38.7773C36.7138 38.9221 37.9077 39.2979 38.9813 39.9047C40.0704 40.5074 41.0057 41.3086 41.7871 42.3084C42.5643 43.2928 43.1269 44.4341 43.4747 45.7323C43.8226 47.0305 43.9081 48.3079 43.7313 49.5645C43.5504 50.8056 43.139 51.9594 42.4971 53.0258C41.8707 54.0881 41.0267 55.0183 39.9651 55.8163C38.8993 56.5988 37.6632 57.1784 36.2568 57.5553C34.835 57.9363 33.4669 58.0544 32.1527 57.9096C30.8497 57.7452 29.6614 57.3596 28.5878 56.7528C27.5142 56.146 26.5887 55.3504 25.8115 54.3661C25.0301 53.3662 24.4654 52.2172 24.1176 50.919Z" fill="white"/>
<path d="M50.309 43.9011C50.4953 44.5965 50.7985 45.2027 51.2186 45.7196C51.6387 46.2365 52.1309 46.6512 52.695 46.9639C53.2591 47.2765 53.868 47.4778 54.5215 47.5677C55.1864 47.638 55.8511 47.5842 56.5156 47.4061C57.1802 47.228 57.775 46.9444 58.3002 46.5552C58.8367 46.1464 59.2711 45.6656 59.6033 45.1128C59.951 44.5558 60.1775 43.9485 60.2829 43.2908C60.3883 42.6332 60.3478 41.9566 60.1614 41.2611C59.9751 40.5656 59.6718 39.9595 59.2518 39.4426C58.8317 38.9257 58.3318 38.513 57.7522 38.2045C57.1881 37.8919 56.5736 37.7004 55.9087 37.6301C55.2552 37.5401 54.5961 37.5842 53.9316 37.7623C53.267 37.9404 52.6665 38.2338 52.13 38.6426C51.6049 39.0317 51.1762 39.5028 50.8439 40.0556C50.5117 40.6084 50.2929 41.2137 50.1875 41.8713C50.0821 42.529 50.1226 43.2056 50.309 43.9011ZM45.5566 45.1745C45.2088 43.8762 45.1253 42.6066 45.3062 41.3655C45.483 40.1089 45.8846 38.9494 46.511 37.8871C47.1374 36.8248 47.9758 35.9045 49.0261 35.1261C50.0878 34.3281 51.3295 33.7387 52.7514 33.3577C54.1578 32.9808 55.5201 32.8725 56.8385 33.0328C58.1528 33.1775 59.3467 33.5533 60.4204 34.1601C61.5095 34.7628 62.4447 35.564 63.2261 36.5639C64.0034 37.5482 64.5659 38.6895 64.9138 39.9877C65.2616 41.2859 65.3472 42.5633 65.1704 43.8199C64.9894 45.061 64.578 46.2148 63.9362 47.2813C63.3098 48.3436 62.4658 49.2737 61.4041 50.0717C60.3383 50.8542 59.1022 51.4339 57.6958 51.8107C56.274 52.1917 54.906 52.3098 53.5917 52.165C52.2888 52.0006 51.1005 51.6151 50.0268 51.0083C48.9532 50.4015 48.0278 49.6059 47.2505 48.6215C46.4691 47.6217 45.9045 46.4727 45.5566 45.1745Z" fill="white"/>
<path d="M69.9858 29.2615L73.6382 42.8927L79.086 41.4329L80.1172 45.2812L70.1256 47.9584L65.442 30.479L69.9858 29.2615Z" fill="white"/>
</svg>
